<svg width="1791" height="219" viewBox="0 0 1791 219" fill="none" xmlns="http://www.w3.org/2000/svg">
<path d="M111.941 135.543C110.444 135.313 108.978 134.857 107.468 134.386C106.997 134.24 106.522 134.092 106.041 133.949C105.982 133.857 105.921 133.769 105.862 133.685L105.847 133.663C105.787 133.577 105.73 133.496 105.68 133.417C105.57 133.244 105.502 133.096 105.498 132.955C105.445 131.061 105.281 129.173 105.117 127.288C105.055 126.567 104.992 125.846 104.936 125.126C104.732 122.519 104.609 119.909 104.858 117.269C105.502 110.445 108.54 104.908 112.608 99.8665C114.369 97.6843 116.41 95.6642 118.61 93.976C121.325 91.8925 124.192 89.9053 127.249 88.4797C130.395 87.0127 133.825 86.5046 137.261 85.9957C138.103 85.8709 138.946 85.7461 139.784 85.6071C141.181 85.3757 142.594 85.1089 143.942 84.659C144.595 84.4413 145.176 83.8061 145.563 83.0949C145.949 82.384 146.157 81.5663 146.03 80.962C145.869 80.2034 145.381 79.5144 144.736 79.041C144.09 78.5674 143.281 78.3039 142.475 78.4074C139.848 78.7442 137.232 79.1681 134.619 79.5933C134.115 79.6753 133.604 79.7456 133.092 79.8162C131.653 80.0144 130.199 80.2146 128.838 80.6809C124.203 82.2678 119.723 84.2796 115.863 87.5042C110.7 91.8173 106.106 96.6952 102.728 102.69C99.2801 108.808 97.7834 115.449 98.2667 122.562C98.5268 126.391 98.8149 130.217 99.1142 134.043C99.1528 134.536 99.3108 135.025 99.4593 135.484L99.4601 135.487C100.584 138.965 103.269 140.651 106.375 141.411C108.164 141.849 110.018 142.017 111.863 142.185C112.732 142.263 113.599 142.342 114.457 142.448C114.627 142.47 114.798 142.516 114.972 142.571C115.034 142.591 115.097 142.612 115.162 142.633C115.208 142.648 115.255 142.664 115.303 142.679C115.265 142.705 115.227 142.731 115.189 142.757C114.981 142.899 114.774 143.041 114.563 143.177C114.371 143.3 114.175 143.414 113.975 143.528C113.873 143.587 113.769 143.647 113.666 143.708C113.364 143.887 113.067 144.079 112.802 144.315C109.202 147.527 105.747 150.86 102.859 154.863C99.7336 159.195 97.2316 163.801 95.4873 168.904C93.5107 174.687 92.6157 180.702 92.3151 186.771C92.1604 189.897 92.3141 193.045 92.4675 196.187C92.5346 197.561 92.6017 198.935 92.6428 200.305C92.6476 200.463 92.6714 200.626 92.6941 200.781C92.7021 200.836 92.71 200.89 92.7169 200.942C92.7439 201.149 92.7565 201.339 92.7171 201.511C92.1064 204.187 93.1372 206.555 94.3017 208.679C96.2937 212.313 99.7617 213.886 103.433 214.992C108.223 216.434 113.112 216.379 117.983 216.324C118.354 216.319 118.725 216.315 119.096 216.312C120.307 216.3 121.519 216.187 122.724 216.075C123.047 216.045 123.37 216.015 123.693 215.987C125.943 215.792 128.2 215.647 130.458 215.502C136.125 215.137 141.8 214.773 147.39 213.609C148.654 213.346 149.91 212.878 151.066 212.291C155.474 210.055 158.182 206.01 160.459 201.816C162.919 197.286 165.172 192.632 167.424 187.98C168.317 186.138 169.209 184.295 170.113 182.461C170.533 181.61 170.934 180.738 171.259 179.839C171.647 178.766 171.695 177.825 171.399 177.036C171.103 176.246 170.468 175.625 169.523 175.181C168.764 174.824 167.954 174.825 167.221 175.151C166.489 175.476 165.841 176.122 165.393 177.046C164.859 178.15 164.358 179.272 163.859 180.393C163.757 180.622 163.655 180.85 163.553 181.078C162.95 182.426 162.338 183.766 161.658 185.066C158.609 190.893 155.536 196.71 152.268 202.401C151.281 204.12 149.857 205.74 147.82 206.241C147.198 206.395 146.577 206.556 145.955 206.718C143.725 207.298 141.496 207.878 139.238 208.068C134.947 208.428 130.649 208.668 126.35 208.907C123.084 209.089 119.816 209.27 116.55 209.506C111.846 209.844 107.292 209.297 102.833 207.702C100.945 207.027 99.403 205.022 99.2913 202.892C99.2303 201.727 99.1957 200.556 99.1611 199.384C99.1054 197.498 99.0496 195.608 98.8829 193.733C98.4148 188.465 98.9469 183.279 99.8872 178.141C100.564 174.445 101.366 170.753 103.115 167.414C103.408 166.854 103.691 166.287 103.974 165.721C104.791 164.083 105.606 162.451 106.657 161.007C108.84 158.008 111.133 155.042 113.745 152.474C116.264 149.997 119.11 147.864 121.942 145.74C122.168 145.571 122.394 145.401 122.62 145.232C124.352 143.931 126.201 142.679 128.174 141.926C129.047 141.593 129.984 141.434 130.947 141.326C131.327 141.283 131.713 141.248 132.101 141.213C132.688 141.159 133.279 141.105 133.855 141.024C134.371 140.951 134.891 140.901 135.413 140.851C135.713 140.822 136.015 140.793 136.316 140.76C137.139 140.669 137.958 140.545 138.743 140.301C138.858 140.265 138.973 140.23 139.089 140.194C141.221 139.536 143.403 138.863 144.947 136.786C145.916 135.482 146.006 134.123 145.579 132.878C145.197 131.763 144.203 131.033 142.813 130.794C139.111 130.157 135.66 130.804 132.261 132.209C131.651 132.461 131.044 132.723 130.439 132.985C127.235 134.37 124.052 135.745 120.457 135.598C119.255 135.548 118.052 135.547 116.852 135.549C116.313 135.55 115.769 135.576 115.228 135.602C114.941 135.616 114.656 135.63 114.372 135.64C113.549 135.668 112.736 135.666 111.941 135.543Z" fill="#FB2321" stroke="#FB2321" stroke-width="0.2"/>
<path d="M63.6992 78.968L63.6994 78.9685L63.7077 78.9625C63.8171 78.8833 63.9155 78.83 64.0074 78.7804L64.0135 78.7771C64.1014 78.7297 64.1891 78.6824 64.2656 78.6181C65.0866 77.9285 65.9211 77.2514 66.7564 76.5737C68.7192 74.981 70.6865 73.3847 72.4933 71.6145C75.5489 68.6211 78.4273 65.4123 81.183 62.117C82.731 60.2658 83.9991 58.124 85.1701 55.9879C87.6503 51.4639 90.1361 46.9267 92.3378 42.247C93.9838 38.7486 95.3431 35.0783 96.5398 31.383C97.6776 27.8699 98.5926 24.257 99.319 20.6245C99.627 19.0847 99.8115 17.519 99.9816 15.9535C100.004 15.7493 100.026 15.5453 100.048 15.3412C100.194 13.9789 100.34 12.6192 100.558 11.2738C100.692 10.4416 100.618 9.72276 100.362 9.09575C100.106 8.46906 99.6716 7.9409 99.0951 7.4852C98.1901 6.76983 97.0192 6.32886 95.9058 7.08416C94.7309 7.88126 94.0635 9.0022 93.9447 10.5781C93.9306 10.7657 93.9165 10.9533 93.9025 11.1411C93.6845 14.0527 93.4654 16.9774 92.9017 19.8155C91.3659 27.548 88.5509 34.8109 85.3324 41.9497C82.1545 48.9986 78.1981 55.4996 73.2634 61.2704C70.2177 64.832 66.8048 68.1285 63.2026 71.0753C59.4762 74.1239 55.2236 76.2857 50.2807 76.442C48.7964 76.4889 47.3131 76.6136 45.8329 76.7379C45.1618 76.7943 44.4913 76.8507 43.8217 76.8997C42.9599 76.9628 42.0987 77.0288 41.2376 77.0949C39.1277 77.2567 37.019 77.4185 34.9072 77.5359C34.2375 77.5731 33.5772 77.5504 33.0097 77.3345C32.4475 77.1205 31.9704 76.7148 31.6671 75.9699C31.3621 75.2205 31.1269 74.3983 31.0741 73.6003C30.5728 66.0111 30.097 58.4202 29.6211 50.8291C29.4935 48.7933 29.3659 46.7574 29.2377 44.7216C29.2342 44.6656 29.2284 44.6083 29.2228 44.5535C29.2205 44.5308 29.2182 44.5085 29.2162 44.4869C29.209 44.4109 29.204 44.339 29.2063 44.2687C29.2361 43.3605 29.2652 42.4523 29.2944 41.5442C29.3846 38.739 29.4747 35.9342 29.5815 33.1301L29.5926 32.838C29.6865 30.3714 29.7803 27.9054 29.9497 25.4463C30.0657 23.7634 30.2136 22.0875 30.3617 20.4105C30.4839 19.0262 30.6062 17.6412 30.7106 16.2507C30.7861 15.2455 30.838 14.2381 30.8898 13.2321C30.8962 13.1084 30.9026 12.9848 30.909 12.8611C30.9676 11.7314 31.0298 10.6038 31.1289 9.48014C31.2152 8.50071 30.9398 7.45796 30.453 6.64509C29.9681 5.83518 29.2594 5.23228 28.467 5.17363C27.5266 5.10404 26.6244 5.28349 25.9261 5.82492C25.2261 6.36773 24.7462 7.26269 24.6293 8.59268C24.4337 10.8174 24.312 13.0502 24.1904 15.281C24.1515 15.9945 24.1126 16.7078 24.0713 17.4206C23.9557 19.4159 23.8478 21.4119 23.74 23.4078C23.6805 24.5086 23.6211 25.6093 23.5603 26.7098C23.483 28.1092 23.398 29.5089 23.313 30.9089C23.1175 34.1271 22.9219 37.347 22.8202 40.5698C22.7171 43.8356 22.7078 47.1264 22.9484 50.3865C23.6052 59.2861 24.2743 68.1923 25.254 77.061C25.5464 79.708 26.9472 82.3705 29.8216 83.1454C32.2818 83.8086 34.8703 84.3388 37.3996 84.3145C40.4593 84.285 43.5176 84.0195 46.5715 83.7545C47.8513 83.6434 49.1304 83.5324 50.4085 83.4388C50.6245 83.423 50.8402 83.4172 51.0585 83.4113C51.1872 83.4078 51.3169 83.4043 51.448 83.3988C51.7974 83.3839 52.1492 83.3542 52.4901 83.2682C56.3489 82.295 60.1207 81.0425 63.6992 78.968Z" fill="#FB2321" stroke="#FB2321" stroke-width="0.2"/>
<path d="M285.456 102.662C285.429 102.578 285.399 102.491 285.369 102.408C285.344 102.338 285.32 102.269 285.299 102.205C285.239 102.016 285.203 101.849 285.229 101.7C285.326 101.123 285.457 100.551 285.589 99.9759C285.613 99.8744 285.636 99.7728 285.659 99.671C285.813 98.9946 285.96 98.3131 286.041 97.6213C286.161 96.6015 285.931 95.4377 285.421 94.5251C284.911 93.6129 284.109 92.9338 283.082 92.9283C281.673 92.9208 280.065 93.052 278.845 93.7328C274.815 95.9803 270.891 98.4381 267 100.935C265.952 101.607 264.994 102.438 264.042 103.263C263.629 103.621 263.217 103.979 262.8 104.321L262.863 104.399L262.8 104.321C261.32 105.536 260.993 107.694 262.051 109.249C262.577 110.02 263.261 110.469 264.042 110.565C264.822 110.66 265.683 110.403 266.56 109.799C266.949 109.531 267.322 109.241 267.691 108.95C267.734 108.916 267.778 108.882 267.821 108.848C268.147 108.59 268.471 108.335 268.804 108.093C269.002 107.949 269.201 107.805 269.399 107.661C272.186 105.639 274.973 103.616 277.791 101.643C277.89 101.574 278.051 101.568 278.266 101.6C278.363 101.614 278.463 101.635 278.566 101.656L278.589 101.66C278.68 101.679 278.772 101.697 278.86 101.711C278.866 101.735 278.873 101.768 278.878 101.804C278.883 101.845 278.886 101.887 278.884 101.922C278.883 101.939 278.881 101.953 278.879 101.964C278.877 101.973 278.875 101.976 278.875 101.976C278.875 101.976 278.875 101.976 278.875 101.976C278.278 102.901 277.7 103.84 277.123 104.778C275.723 107.051 274.328 109.319 272.676 111.366C271.67 112.614 270.492 113.709 269.286 114.791C269.119 114.94 268.952 115.09 268.784 115.24C267.743 116.17 266.696 117.105 265.744 118.129C263.652 120.377 261.736 122.821 259.923 125.318C259.427 126.001 259.318 126.983 259.464 127.905C259.609 128.827 260.013 129.717 260.577 130.217C261.329 130.885 262.1 131.251 262.89 131.255C263.681 131.258 264.471 130.898 265.26 130.152C267.323 128.204 269.298 126.143 271.185 124.011C271.981 123.111 272.72 122.142 273.455 121.177C273.71 120.842 273.965 120.507 274.222 120.175C275.22 118.889 276.248 117.657 277.446 116.643C280.79 113.815 284.454 111.384 288.107 108.958C288.492 108.703 288.877 108.447 289.262 108.191C289.934 107.743 290.684 107.416 291.463 107.126C291.831 106.989 292.204 106.861 292.578 106.733L292.645 106.71C293.04 106.575 293.437 106.438 293.825 106.29L293.79 106.197L293.826 106.29C293.851 106.281 293.886 106.279 293.937 106.29C293.988 106.301 294.046 106.323 294.111 106.353C294.159 106.375 294.207 106.4 294.257 106.425C294.276 106.435 294.295 106.444 294.314 106.454C294.35 106.472 294.388 106.491 294.425 106.508C294.406 106.551 294.387 106.594 294.368 106.637C294.349 106.681 294.33 106.724 294.312 106.764C294.259 106.879 294.205 106.983 294.137 107.074C293.992 107.267 293.834 107.45 293.673 107.636C293.651 107.661 293.63 107.686 293.608 107.711C293.426 107.922 293.244 108.138 293.083 108.372C292.483 109.24 291.883 110.107 291.282 110.975C289.142 114.065 287.002 117.156 284.915 120.286C283.602 122.256 282.363 124.295 281.267 126.405C280.408 128.06 281.042 129.863 282.547 130.973C283.737 131.85 285.582 131.627 286.783 130.403C288.298 128.859 289.776 127.275 291.247 125.686C291.709 125.187 292.154 124.676 292.598 124.166C293.329 123.328 294.056 122.493 294.848 121.723C297.16 119.479 299.519 117.283 301.929 115.155C303.894 113.421 305.885 111.721 307.896 110.004C309.098 108.979 310.306 107.947 311.521 106.898C312.217 106.318 312.909 105.755 313.593 105.198C314.663 104.326 315.717 103.469 316.744 102.582C317.717 101.742 318.172 100.696 318.114 99.6664C318.056 98.6373 317.487 97.6406 316.445 96.8974C315.332 96.104 313.696 96.3624 312.324 97.5516C310.514 99.1214 308.712 100.693 306.91 102.265C305.051 103.887 303.191 105.509 301.324 107.127C301.153 107.276 300.899 107.362 300.656 107.4C300.653 107.396 300.65 107.392 300.647 107.387C300.624 107.353 300.596 107.303 300.57 107.245C300.544 107.186 300.521 107.123 300.505 107.065C300.49 107.004 300.484 106.956 300.487 106.925C300.608 105.758 300.762 104.595 300.916 103.43C300.927 103.346 300.938 103.262 300.949 103.178L300.85 103.165L300.949 103.178C301.257 100.844 299.413 98.5564 297.18 98.7003C295.842 98.7865 294.433 98.879 293.166 99.3315C291.45 99.9444 289.777 100.69 288.107 101.434C287.461 101.722 286.816 102.01 286.168 102.29C285.972 102.374 285.781 102.481 285.595 102.585C285.549 102.611 285.502 102.637 285.456 102.662ZM278.849 101.677C278.849 101.677 278.849 101.677 278.849 101.677L278.849 101.677Z" fill="#FB2321" stroke="#FB2321" stroke-width="0.2"/>
<path d="M201.867 30.1024L201.787 30.1004L201.867 30.1024C201.886 29.353 201.542 28.6441 201.029 28.1062C200.517 27.5686 199.827 27.1928 199.139 27.1162C197.646 26.9499 196.075 27.9638 195.723 29.4506C195.503 30.3754 195.413 31.3379 195.325 32.2818L195.321 32.3275C195.112 34.56 194.917 36.7942 194.722 39.028C194.645 39.9013 194.569 40.7747 194.492 41.6478C194.427 42.3857 194.347 43.1253 194.266 43.8661C194.083 45.5532 193.899 47.2465 193.893 48.9381C193.885 51.5247 194.048 54.1458 194.457 56.6997C195.193 61.2998 197.569 64.7189 201.738 66.779C205.605 68.6903 209.696 68.6494 213.742 68.609C213.9 68.6075 214.058 68.6059 214.216 68.6044C217.431 68.5747 220.668 68.3627 223.846 67.8826C226.576 67.4702 229.277 66.709 231.906 65.8421C236.012 64.4879 239.619 62.0748 243.195 59.6768C248.91 55.8445 253.955 51.1678 258.441 45.9129C261.11 42.7872 263.579 39.4752 266.046 36.167C266.948 34.9567 267.85 33.747 268.762 32.5471C269.891 31.0597 270.977 29.5296 271.996 27.9577C274.452 24.1675 276.897 20.3668 279.269 16.5171C280.448 14.6023 281.55 12.6192 282.507 10.5738C282.845 9.85236 282.81 8.99679 282.541 8.23567C282.272 7.47485 281.763 6.79419 281.132 6.42402C279.834 5.66277 278.169 5.91411 277.232 7.34231C276.034 9.16607 274.879 11.0195 273.727 12.8738L273.488 13.2592C272.416 14.9854 271.345 16.7106 270.242 18.4134C267.982 21.9017 265.679 25.3625 263.288 28.7528C261.402 31.4278 259.427 34.0436 257.358 36.567C256.825 37.2176 256.295 37.8725 255.765 38.5275C253.518 41.3064 251.269 44.0871 248.733 46.5408C244.307 50.8246 239.51 54.6363 234.014 57.475C230.882 59.0928 227.742 60.6744 224.351 61.1148C218.626 61.8581 212.838 62.302 207.074 61.5024C205.699 61.3116 204.433 60.8883 203.41 60.1383C202.389 59.3895 201.604 58.3114 201.194 56.8004C200.089 52.731 200.344 48.5796 200.599 44.4228C200.617 44.1299 200.634 43.837 200.652 43.5441C200.786 41.3064 201.016 39.0751 201.271 36.7562C201.308 36.4275 201.346 36.1004 201.383 35.7747C201.604 33.8541 201.82 31.981 201.867 30.1024Z" fill="#FB2321" stroke="#FB2321" stroke-width="0.2"/>
<path d="M186.46 81.1212L186.384 81.0572L186.46 81.1212C186.833 80.6743 187.267 80.2826 187.72 79.8996C187.847 79.7919 187.976 79.6848 188.105 79.5773C188.434 79.3039 188.766 79.0282 189.079 78.7363C189.656 78.1994 190.234 77.664 190.812 77.1284C192.796 75.291 194.782 73.4521 196.708 71.5473C197.332 70.9296 197.757 70.0757 197.827 69.2055C197.898 68.3344 197.612 67.4475 196.817 66.7739C196.095 65.9298 195.225 65.646 194.362 65.7402C193.502 65.834 192.657 66.3013 191.973 66.9406C188.589 70.1011 185.196 73.2502 181.762 76.3491C181.05 76.9915 180.302 77.5921 179.552 78.1945C179.402 78.3154 179.251 78.4365 179.1 78.558C178.201 79.2833 177.311 80.0227 176.494 80.8467C175.698 81.6497 175.577 82.8581 175.916 83.9012C176.256 84.944 177.065 85.8505 178.167 86.0386C179.483 86.2635 180.878 86.2435 182.196 86.0546C182.892 85.9549 183.561 85.7546 184.113 85.3594C184.667 84.9625 185.096 84.3738 185.319 83.511C185.541 82.6553 185.92 81.7688 186.46 81.1212Z" fill="#FB2321" stroke="#FB2321" stroke-width="0.2"/>
<path d="M17.0967 73.1692L17.158 73.2482L3.15512 86.4392L3.0781 86.3754C3.07795 86.3756 3.07779 86.3758 3.07764 86.376C2.95239 86.5272 2.82449 86.6615 2.69903 86.7932C2.62973 86.866 2.56117 86.9379 2.49422 87.0116C2.31022 87.2139 2.14447 87.4227 2.04851 87.6667L2.14157 87.7033L2.0485 87.6667C1.95832 87.8961 1.84999 88.1369 1.73856 88.3846C1.72853 88.4069 1.71848 88.4293 1.70842 88.4517C1.58697 88.7219 1.46373 88.9992 1.36111 89.2723C1.15782 89.8133 1.02556 90.3614 1.16795 90.8228C1.66479 92.4329 2.92704 93.8918 4.77994 93.8734C6.19126 93.8594 7.20902 92.8042 7.8871 91.4959C8.33847 90.625 8.8307 89.7256 9.50675 89.0902C13.3293 85.497 17.1949 81.9522 21.0945 78.4495C22.5337 77.1567 23.0032 75.2803 21.9783 73.8789C20.8403 72.3228 18.6338 71.9768 17.0967 73.1692Z" fill="#FB2321" stroke="#FB2321" stroke-width="0.2"/>
<path d="M31.5619 96.4299L31.5619 96.4299C31.308 96.8167 31.0553 97.2013 30.8039 97.584C29.4414 99.6582 28.1145 101.678 26.8173 103.718C25.9782 105.037 24.9353 105.747 23.8954 105.918C22.8544 106.089 21.8331 105.717 21.0478 104.907C19.9045 103.727 19.641 101.91 20.6621 100.41C21.4789 99.2091 22.3173 98.024 23.155 96.8397C23.237 96.7238 23.3191 96.6078 23.4011 96.4919C24.3207 95.1914 25.237 93.8901 26.122 92.5672C27.1845 90.979 28.1328 89.3072 29.0806 87.6363C29.1066 87.5903 29.1327 87.5444 29.1587 87.4985M31.5619 96.4299L29.1587 87.4985M31.5619 96.4299L31.5644 96.4258C31.8236 95.9859 32.0816 95.5501 32.3379 95.1171C33.3625 93.3862 34.3605 91.7002 35.3042 89.9832C35.8089 89.0648 35.793 87.9797 35.4228 87.0848C35.053 86.1905 34.3228 85.4717 33.3843 85.3033C32.4808 85.1412 31.6696 85.2528 30.9593 85.6274C30.2501 86.0014 29.6496 86.6333 29.1587 87.4985M31.5619 96.4299L29.2457 87.5478L29.1587 87.4985" fill="#FB2321" stroke="#FB2321" stroke-width="0.2"/>
<path d="M228.519 85.7586L228.593 85.7229L228.519 85.7586C228.991 86.7332 229.597 87.4037 230.28 87.7405C230.967 88.0789 231.72 88.0748 232.466 87.7196C233.195 87.3725 233.756 86.6632 234.083 85.8333C234.41 85.0025 234.508 84.0395 234.301 83.1711C233.926 81.5969 233.576 80.0077 233.384 78.4069C233.26 77.3656 233.192 76.3168 233.127 75.2646C233.124 75.219 233.121 75.1734 233.118 75.1277C233.056 74.1218 232.993 73.113 232.883 72.1096C232.769 71.0768 232.365 70.2741 231.764 69.7384C231.163 69.2025 230.372 68.9405 229.498 68.9759C228.756 69.006 228.023 69.4863 227.492 70.1478C226.96 70.8105 226.615 71.673 226.665 72.4937C226.854 75.5714 227.096 78.646 227.338 81.7192C227.354 81.9242 227.37 82.1291 227.386 82.3341C227.397 82.4657 227.461 82.5877 227.525 82.7064C227.53 82.7158 227.535 82.7251 227.54 82.7346C227.603 82.8495 227.67 82.9739 227.724 83.1305C227.79 83.3734 227.849 83.6118 227.907 83.8449C228.079 84.5368 228.24 85.1817 228.519 85.7586Z" fill="#FB2321" stroke="#FB2321" stroke-width="0.2"/>
<path d="M206.062 90.8206L206.074 90.8152L206.084 90.8068C206.532 90.4373 206.986 90.0916 207.436 89.7489C207.696 89.5504 207.955 89.3529 208.211 89.1524C208.906 88.6081 209.572 88.0463 210.153 87.3977C210.452 87.0636 210.664 86.5548 210.779 86.024C210.895 85.4921 210.916 84.9245 210.821 84.4654C210.713 83.9452 210.678 83.5079 210.731 83.0944C210.784 82.6817 210.925 82.287 211.178 81.8533C211.595 81.136 211.775 80.2814 211.752 79.4857C211.729 78.6916 211.504 77.9438 211.098 77.4458C210.358 76.5379 209.304 76.1904 208.279 76.3466C207.255 76.5026 206.264 77.1597 205.638 78.2506C204.543 80.1579 203.512 82.1081 202.525 84.0792C202.499 84.1304 202.474 84.1817 202.448 84.2332C201.945 85.2346 201.415 86.2926 201.215 87.3993L201.314 87.417L201.215 87.3993C201.016 88.5065 201.523 89.6835 202.427 90.4216C203.336 91.1629 204.649 91.4652 206.062 90.8206Z" fill="#FB2321" stroke="#FB2321" stroke-width="0.2"/>
<path d="M51.0649 91.5061L51.0535 91.4918L51.0377 91.4825C50.1176 90.9379 49.0479 90.8948 48.1796 91.3063C47.3089 91.719 46.6496 92.5847 46.5449 93.837C46.4747 94.677 46.4258 95.5202 46.3771 96.362C46.3519 96.7974 46.3267 97.2325 46.2986 97.6665C46.2526 98.3759 46.1966 99.0865 46.1405 99.7979C46.0149 101.392 45.8889 102.989 45.875 104.587C45.8646 105.791 46.3804 106.662 47.0933 107.226C47.8032 107.788 48.7063 108.044 49.4767 108.03C51.3899 107.995 52.5915 106.168 52.5429 104.055C52.5279 103.403 52.5895 102.749 52.6561 102.089C52.66 102.05 52.6639 102.012 52.6677 101.974C52.7306 101.353 52.7941 100.726 52.7958 100.098L52.7959 100.07C52.8019 97.9032 52.8079 95.7163 52.5731 93.5615C52.5318 93.183 52.2821 92.8396 51.9905 92.5132C51.8776 92.3869 51.7552 92.2598 51.6325 92.1325C51.5954 92.0939 51.5583 92.0553 51.5213 92.0167C51.3614 91.8496 51.2045 91.6809 51.0649 91.5061Z" fill="#FB2321" stroke="#FB2321" stroke-width="0.2"/>
<path d="M1747.53 143.378C1753.57 143.378 1759.11 142.331 1764.16 140.237C1769.33 138.019 1773.71 134.816 1777.28 130.627L1784.67 139.128C1780.36 144.302 1775 148.244 1768.6 150.955C1762.19 153.665 1755.11 155.02 1747.34 155.02C1737.37 155.02 1728.5 152.926 1720.73 148.737C1712.97 144.425 1706.94 138.512 1702.62 130.997C1698.31 123.482 1696.16 114.982 1696.16 105.496C1696.16 96.0095 1698.19 87.509 1702.25 79.9941C1706.44 72.4791 1712.17 66.6274 1719.44 62.4387C1726.71 58.2501 1734.96 56.1558 1744.2 56.1558C1752.83 56.1558 1760.59 58.1269 1767.49 62.0691C1774.51 66.0114 1780.05 71.4936 1784.12 78.5157C1788.31 85.5379 1790.52 93.5456 1790.77 102.539L1710.94 118.061C1713.4 125.946 1717.84 132.167 1724.24 136.726C1730.77 141.161 1738.54 143.378 1747.53 143.378ZM1744.2 67.4281C1737.43 67.4281 1731.33 69.0297 1725.91 72.2328C1720.61 75.3126 1716.42 79.6861 1713.34 85.3531C1710.39 90.8969 1708.91 97.303 1708.91 104.572C1708.91 106.419 1708.97 107.775 1709.09 108.637L1777.65 95.3319C1776.17 87.201 1772.41 80.5484 1766.38 75.3742C1760.34 70.0768 1752.95 67.4281 1744.2 67.4281Z" fill="#FB2321"/>
<path d="M1646.68 75.9286C1649.76 69.3993 1654.32 64.4715 1660.36 61.1452C1666.52 57.8189 1674.09 56.1558 1683.09 56.1558V68.9065L1679.94 68.7217C1669.72 68.7217 1661.71 71.8632 1655.92 78.1461C1650.13 84.4291 1647.24 93.2376 1647.24 104.572V154.096H1634.12V56.8949H1646.68V75.9286Z" fill="#FB2321"/>
<path d="M1558 155.02C1548.64 155.02 1540.2 152.926 1532.68 148.737C1525.17 144.425 1519.25 138.512 1514.94 130.997C1510.63 123.482 1508.47 114.982 1508.47 105.496C1508.47 96.0095 1510.63 87.509 1514.94 79.9941C1519.25 72.4791 1525.17 66.6274 1532.68 62.4387C1540.2 58.2501 1548.64 56.1558 1558 56.1558C1567.36 56.1558 1575.8 58.2501 1583.32 62.4387C1590.83 66.6274 1596.68 72.4791 1600.87 79.9941C1605.18 87.509 1607.34 96.0095 1607.34 105.496C1607.34 114.982 1605.18 123.482 1600.87 130.997C1596.68 138.512 1590.83 144.425 1583.32 148.737C1575.8 152.926 1567.36 155.02 1558 155.02ZM1558 143.378C1564.9 143.378 1571.06 141.838 1576.48 138.758C1582.02 135.555 1586.33 131.059 1589.41 125.268C1592.49 119.478 1594.03 112.887 1594.03 105.496C1594.03 98.1038 1592.49 91.5128 1589.41 85.7227C1586.33 79.9325 1582.02 75.4974 1576.48 72.4176C1571.06 69.2145 1564.9 67.6129 1558 67.6129C1551.1 67.6129 1544.88 69.2145 1539.34 72.4176C1533.91 75.4974 1529.6 79.9325 1526.4 85.7227C1523.32 91.5128 1521.78 98.1038 1521.78 105.496C1521.78 112.887 1523.32 119.478 1526.4 125.268C1529.6 131.059 1533.91 135.555 1539.34 138.758C1544.88 141.838 1551.1 143.378 1558 143.378Z" fill="#FB2321"/>
<path d="M1497.92 148.181C1495.46 150.398 1492.44 152.123 1488.87 153.355C1485.29 154.464 1481.54 155.018 1477.59 155.018C1468.48 155.018 1461.45 152.554 1456.53 147.626C1451.6 142.698 1449.13 135.738 1449.13 126.745V35.6416H1462.26V56.8928H1491.64V67.9804H1462.26V126.005C1462.26 131.796 1463.67 136.231 1466.51 139.31C1469.34 142.267 1473.47 143.746 1478.89 143.746C1484.8 143.746 1489.6 142.082 1493.3 138.756L1497.92 148.181Z" fill="#FB2321"/>
<path d="M1385.69 155.02C1377.81 155.02 1370.23 153.911 1362.96 151.694C1355.82 149.353 1350.21 146.458 1346.15 143.009L1352.06 132.66C1356.13 135.863 1361.24 138.512 1367.4 140.606C1373.56 142.577 1379.97 143.563 1386.62 143.563C1395.49 143.563 1402.02 142.208 1406.21 139.497C1410.52 136.664 1412.67 132.722 1412.67 127.671C1412.67 124.098 1411.5 121.326 1409.16 119.355C1406.82 117.261 1403.87 115.721 1400.29 114.735C1396.72 113.626 1391.98 112.579 1386.06 111.594C1378.18 110.115 1371.83 108.637 1367.03 107.159C1362.23 105.557 1358.1 102.908 1354.65 99.2125C1351.32 95.5167 1349.66 90.4041 1349.66 83.8747C1349.66 75.7438 1353.05 69.0913 1359.82 63.9171C1366.6 58.7429 1376.02 56.1558 1388.1 56.1558C1394.38 56.1558 1400.66 57.0181 1406.95 58.7429C1413.23 60.3444 1418.4 62.5003 1422.47 65.2106L1416.74 75.7438C1408.73 70.2 1399.18 67.4281 1388.1 67.4281C1379.72 67.4281 1373.37 68.9065 1369.06 71.8632C1364.87 74.8199 1362.78 78.7005 1362.78 83.5051C1362.78 87.201 1363.95 90.1577 1366.29 92.3752C1368.75 94.5927 1371.77 96.2559 1375.35 97.3646C1378.92 98.3502 1383.85 99.3973 1390.13 100.506C1397.89 101.984 1404.11 103.463 1408.79 104.941C1413.47 106.419 1417.48 108.945 1420.8 112.518C1424.13 116.09 1425.79 121.018 1425.79 127.301C1425.79 135.802 1422.22 142.577 1415.08 147.628C1408.05 152.556 1398.26 155.02 1385.69 155.02Z" fill="#FB2321"/>
<path d="M1236.31 105.309L1213.4 126.376V154.094H1200.28V16.978H1213.4V109.929L1271.42 56.8933H1287.68L1246.11 96.6238L1291.57 154.094H1275.49L1236.31 105.309Z" fill="#FB2321"/>
<path d="M1124.16 155.02C1114.8 155.02 1106.36 152.926 1098.85 148.737C1091.33 144.425 1085.42 138.512 1081.11 130.997C1076.79 123.482 1074.64 114.982 1074.64 105.496C1074.64 96.0095 1076.79 87.509 1081.11 79.9941C1085.42 72.4791 1091.33 66.6274 1098.85 62.4387C1106.36 58.2501 1114.8 56.1558 1124.16 56.1558C1133.53 56.1558 1141.96 58.2501 1149.48 62.4387C1156.99 66.6274 1162.85 72.4791 1167.04 79.9941C1171.35 87.509 1173.5 96.0095 1173.5 105.496C1173.5 114.982 1171.35 123.482 1167.04 130.997C1162.85 138.512 1156.99 144.425 1149.48 148.737C1141.96 152.926 1133.53 155.02 1124.16 155.02ZM1124.16 143.378C1131.06 143.378 1137.22 141.838 1142.64 138.758C1148.19 135.555 1152.5 131.059 1155.58 125.268C1158.66 119.478 1160.2 112.887 1160.2 105.496C1160.2 98.1038 1158.66 91.5128 1155.58 85.7227C1152.5 79.9325 1148.19 75.4974 1142.64 72.4176C1137.22 69.2145 1131.06 67.6129 1124.16 67.6129C1117.26 67.6129 1111.04 69.2145 1105.5 72.4176C1100.08 75.4974 1095.77 79.9325 1092.56 85.7227C1089.48 91.5128 1087.94 98.1038 1087.94 105.496C1087.94 112.887 1089.48 119.478 1092.56 125.268C1095.77 131.059 1100.08 135.555 1105.5 138.758C1111.04 141.838 1117.26 143.378 1124.16 143.378Z" fill="#FB2321"/>
<path d="M1008.31 155.02C998.943 155.02 990.504 152.926 982.989 148.737C975.474 144.425 969.561 138.512 965.249 130.997C960.937 123.482 958.781 114.982 958.781 105.496C958.781 96.0095 960.937 87.509 965.249 79.9941C969.561 72.4791 975.474 66.6274 982.989 62.4387C990.504 58.2501 998.943 56.1558 1008.31 56.1558C1017.67 56.1558 1026.11 58.2501 1033.62 62.4387C1041.14 66.6274 1046.99 72.4791 1051.18 79.9941C1055.49 87.509 1057.65 96.0095 1057.65 105.496C1057.65 114.982 1055.49 123.482 1051.18 130.997C1046.99 138.512 1041.14 144.425 1033.62 148.737C1026.11 152.926 1017.67 155.02 1008.31 155.02ZM1008.31 143.378C1015.2 143.378 1021.36 141.838 1026.79 138.758C1032.33 135.555 1036.64 131.059 1039.72 125.268C1042.8 119.478 1044.34 112.887 1044.34 105.496C1044.34 98.1038 1042.8 91.5128 1039.72 85.7227C1036.64 79.9325 1032.33 75.4974 1026.79 72.4176C1021.36 69.2145 1015.2 67.6129 1008.31 67.6129C1001.41 67.6129 995.185 69.2145 989.642 72.4176C984.221 75.4974 979.909 79.9325 976.706 85.7227C973.626 91.5128 972.086 98.1038 972.086 105.496C972.086 112.887 973.626 119.478 976.706 125.268C979.909 131.059 984.221 135.555 989.642 138.758C995.185 141.838 1001.41 143.378 1008.31 143.378Z" fill="#FB2321"/>
<path d="M893.389 56.1542C902.506 56.1542 910.76 58.2485 918.152 62.4371C925.543 66.5026 931.334 72.2928 935.522 79.8077C939.711 87.3226 941.805 95.8847 941.805 105.494C941.805 115.103 939.711 123.665 935.522 131.18C931.334 138.695 925.543 144.547 918.152 148.735C910.76 152.924 902.506 155.018 893.389 155.018C885.259 155.018 877.928 153.294 871.399 149.844C864.993 146.395 859.819 141.405 855.876 134.876V154.094H843.311V16.978H856.431V75.3726C860.496 69.0897 865.67 64.3467 871.953 61.1436C878.36 57.8173 885.505 56.1542 893.389 56.1542ZM892.465 143.376C899.241 143.376 905.401 141.837 910.945 138.757C916.489 135.554 920.8 131.057 923.88 125.267C927.083 119.477 928.685 112.886 928.685 105.494C928.685 98.1022 927.083 91.5112 923.88 85.7211C920.8 79.9309 916.489 75.4958 910.945 72.416C905.401 69.2129 899.241 67.6113 892.465 67.6113C885.567 67.6113 879.345 69.2129 873.801 72.416C868.381 75.4958 864.069 79.9309 860.866 85.7211C857.786 91.5112 856.246 98.1022 856.246 105.494C856.246 112.886 857.786 119.477 860.866 125.267C864.069 131.057 868.381 135.554 873.801 138.757C879.345 141.837 885.567 143.376 892.465 143.376Z" fill="#FB2321"/>
<path d="M758.223 56.8932V154.094H745.657V136.354C742.208 142.268 737.465 146.887 731.428 150.214C725.391 153.417 718.492 155.018 710.731 155.018C698.042 155.018 688.002 151.507 680.61 144.485C673.341 137.34 669.707 126.93 669.707 113.255V56.8932H682.827V111.962C682.827 122.187 685.353 129.948 690.404 135.245C695.455 140.543 702.662 143.192 712.025 143.192C722.25 143.192 730.319 140.112 736.233 133.952C742.146 127.669 745.103 118.984 745.103 107.896V56.8932H758.223Z" fill="#FB2321"/>
<path d="M595.458 56.1542C604.574 56.1542 612.828 58.2485 620.22 62.4371C627.612 66.5026 633.402 72.2928 637.591 79.8077C641.779 87.3226 643.874 95.8847 643.874 105.494C643.874 115.103 641.779 123.665 637.591 131.18C633.402 138.695 627.612 144.547 620.22 148.735C612.828 152.924 604.574 155.018 595.458 155.018C587.327 155.018 579.997 153.294 573.467 149.844C567.061 146.395 561.887 141.405 557.945 134.876V154.094H545.379V16.978H558.499V75.3726C562.565 69.0897 567.739 64.3467 574.022 61.1436C580.428 57.8173 587.573 56.1542 595.458 56.1542ZM594.534 143.376C601.31 143.376 607.469 141.837 613.013 138.757C618.557 135.554 622.869 131.057 625.949 125.267C629.152 119.477 630.753 112.886 630.753 105.494C630.753 98.1022 629.152 91.5112 625.949 85.7211C622.869 79.9309 618.557 75.4958 613.013 72.416C607.469 69.2129 601.31 67.6113 594.534 67.6113C587.635 67.6113 581.414 69.2129 575.87 72.416C570.449 75.4958 566.137 79.9309 562.934 85.7211C559.854 91.5112 558.314 98.1022 558.314 105.494C558.314 112.886 559.854 119.477 562.934 125.267C566.137 131.057 570.449 135.554 575.87 138.757C581.414 141.837 587.635 143.376 594.534 143.376Z" fill="#FB2321"/>
<path d="M508.639 56.8932V154.094H496.073V136.354C492.624 142.268 487.881 146.887 481.844 150.214C475.807 153.417 468.908 155.018 461.147 155.018C448.458 155.018 438.418 151.507 431.026 144.485C423.757 137.34 420.123 126.93 420.123 113.255V56.8932H433.243V111.962C433.243 122.187 435.769 129.948 440.82 135.245C445.871 140.543 453.078 143.192 462.441 143.192C472.666 143.192 480.735 140.112 486.649 133.952C492.562 127.669 495.519 118.984 495.519 107.896V56.8932H508.639Z" fill="#FB2321"/>
<path fill-rule="evenodd" clip-rule="evenodd" d="M423.29 118.162L402.758 118.162L402.758 107.896L423.29 107.896L423.29 118.162Z" fill="#FB2321"/>
<path fill-rule="evenodd" clip-rule="evenodd" d="M434.667 137.496L416.302 152.895L409.706 145.029L428.071 129.629L434.667 137.496Z" fill="#FB2321"/>
</svg>
