<svg width="1708" height="776" viewBox="0 0 1708 776" fill="none" xmlns="http://www.w3.org/2000/svg">
<path d="M774.938 261.572C772.041 261.126 769.205 260.244 766.289 259.336C765.371 259.05 764.446 258.762 763.509 258.485C763.391 258.298 763.268 258.12 763.148 257.949L763.118 257.905C763.002 257.74 762.892 257.583 762.794 257.429C762.58 257.092 762.437 256.788 762.428 256.49C762.326 252.838 762.01 249.201 761.695 245.565C761.574 244.174 761.453 242.782 761.344 241.39C760.951 236.36 760.714 231.319 761.195 226.217C762.439 213.028 768.311 202.331 776.165 192.596C779.566 188.381 783.509 184.479 787.759 181.217C792.999 177.197 798.536 173.358 804.443 170.604C810.526 167.767 817.16 166.785 823.789 165.803C825.412 165.563 827.035 165.322 828.65 165.055C831.343 164.608 834.063 164.095 836.657 163.229C837.883 162.82 838.99 161.618 839.731 160.256C840.471 158.893 840.862 157.339 840.622 156.204C840.318 154.767 839.39 153.456 838.162 152.554C836.933 151.652 835.395 151.153 833.866 151.349C828.801 151.999 823.755 152.816 818.715 153.636C817.737 153.795 816.749 153.932 815.758 154.068C812.985 154.45 810.195 154.834 807.577 155.731C798.641 158.791 790.012 162.667 782.577 168.877C772.622 177.193 763.768 186.595 757.259 198.147C750.616 209.934 747.733 222.728 748.664 236.432C749.166 243.817 749.722 251.199 750.299 258.578C750.373 259.518 750.675 260.453 750.962 261.343C753.118 268.012 758.264 271.249 764.235 272.71C767.68 273.553 771.244 273.876 774.801 274.199C776.478 274.351 778.154 274.503 779.815 274.709C780.153 274.751 780.488 274.843 780.827 274.95C780.949 274.988 781.072 275.029 781.196 275.07C781.346 275.12 781.496 275.169 781.647 275.216C781.521 275.301 781.396 275.387 781.271 275.472C780.869 275.748 780.468 276.022 780.06 276.285C779.688 276.524 779.305 276.745 778.919 276.967C778.722 277.08 778.523 277.194 778.326 277.311C777.746 277.655 777.178 278.021 776.674 278.471C769.73 284.666 763.072 291.09 757.506 298.805C751.481 307.156 746.659 316.033 743.298 325.868C739.488 337.013 737.762 348.607 737.183 360.31C736.885 366.336 737.181 372.401 737.477 378.46C737.606 381.113 737.736 383.765 737.815 386.413C737.824 386.71 737.869 387.017 737.912 387.315C737.928 387.422 737.944 387.528 737.957 387.632C738.01 388.033 738.036 388.413 737.956 388.763C736.786 393.888 738.759 398.43 741.004 402.525C744.828 409.501 751.488 412.527 758.564 414.658C767.791 417.437 777.21 417.33 786.609 417.224C787.324 417.216 788.039 417.208 788.753 417.201C791.085 417.179 793.417 416.962 795.742 416.746C796.366 416.688 796.99 416.63 797.614 416.576C801.959 416.198 806.316 415.918 810.674 415.638C821.604 414.936 832.542 414.233 843.319 411.988C845.747 411.483 848.162 410.583 850.387 409.454C858.863 405.154 864.076 397.373 868.468 389.285C873.211 380.548 877.557 371.573 881.902 362.6C883.623 359.045 885.345 355.49 887.09 351.951C887.9 350.309 888.671 348.63 889.296 346.901C890.04 344.844 890.128 343.053 889.567 341.558C889.007 340.062 887.803 338.879 885.996 338.031C884.556 337.355 883.021 337.357 881.632 337.974C880.244 338.591 879.007 339.819 878.151 341.586C877.121 343.713 876.157 345.877 875.193 348.039C874.997 348.48 874.8 348.921 874.603 349.361C873.439 351.962 872.258 354.549 870.944 357.06C865.063 368.302 859.134 379.525 852.828 390.504C850.918 393.829 848.155 396.98 844.19 397.957C842.992 398.252 841.795 398.564 840.597 398.875C836.293 399.995 831.983 401.116 827.619 401.483C819.34 402.179 811.046 402.64 802.75 403.102C796.449 403.453 790.147 403.803 783.849 404.257C774.763 404.911 765.964 403.853 757.349 400.772C753.672 399.457 750.673 395.558 750.455 391.411C750.337 389.158 750.271 386.898 750.204 384.637C750.096 381 749.989 377.361 749.668 373.744C748.764 363.571 749.791 353.556 751.606 343.64C752.911 336.51 754.462 329.376 757.842 322.921C758.405 321.844 758.95 320.753 759.495 319.662C761.073 316.5 762.649 313.341 764.683 310.548C768.895 304.763 773.321 299.036 778.366 294.075C783.23 289.292 788.725 285.173 794.189 281.077C794.625 280.75 795.061 280.424 795.496 280.096C798.839 277.586 802.415 275.165 806.235 273.706C807.928 273.06 809.746 272.753 811.606 272.543C812.344 272.46 813.09 272.392 813.838 272.324C814.969 272.221 816.103 272.118 817.213 271.961C818.21 271.821 819.217 271.724 820.227 271.627C820.805 271.571 821.385 271.515 821.964 271.451C823.549 271.275 825.122 271.038 826.629 270.569C826.849 270.501 827.069 270.433 827.289 270.365C831.408 269.094 835.589 267.803 838.549 263.821C840.398 261.333 840.571 258.744 839.756 256.369C839.032 254.257 837.149 252.866 834.491 252.409C827.371 251.184 820.732 252.429 814.187 255.134C813.013 255.619 811.845 256.124 810.677 256.629C804.496 259.3 798.334 261.963 791.375 261.678C789.059 261.583 786.74 261.58 784.425 261.584C783.387 261.586 782.342 261.636 781.299 261.686C780.746 261.713 780.194 261.739 779.644 261.759C778.055 261.814 776.48 261.81 774.938 261.572Z" fill="white" stroke="white" stroke-width="0.2"/>
<path d="M681.82 152.26L681.821 152.26L681.829 152.254C682.046 152.097 682.24 151.992 682.417 151.896L682.426 151.892C682.598 151.799 682.76 151.712 682.9 151.594C684.486 150.261 686.098 148.954 687.71 147.646C691.495 144.575 695.285 141.5 698.767 138.088C704.659 132.316 710.21 126.128 715.525 119.772C718.505 116.208 720.948 112.083 723.206 107.964C727.991 99.2356 732.785 90.4852 737.031 81.4605C740.204 74.7161 742.825 67.6396 745.133 60.5132C747.326 53.7398 749.091 46.7734 750.492 39.769C751.085 36.8028 751.441 33.7861 751.769 30.766C751.811 30.3726 751.854 29.9793 751.896 29.5859C752.178 26.9579 752.461 24.3318 752.881 21.7336C753.138 20.1421 752.996 18.773 752.509 17.5817C752.023 16.3906 751.196 15.3839 750.093 14.5125C748.359 13.1414 746.147 12.3203 744.05 13.7428C741.808 15.264 740.535 17.4003 740.308 20.4132C740.28 20.7756 740.253 21.1381 740.226 21.5008C739.806 27.1163 739.383 32.7637 738.294 38.2445C735.329 53.1717 729.895 67.1903 723.685 80.9647C717.552 94.5699 709.915 107.119 700.388 118.259C694.509 125.135 687.921 131.498 680.968 137.186C673.769 143.075 665.546 147.258 655.984 147.56C653.123 147.65 650.266 147.89 647.411 148.13C646.116 148.239 644.821 148.348 643.527 148.443C641.865 148.564 640.204 148.692 638.543 148.819C634.473 149.131 630.403 149.444 626.328 149.67C625.033 149.742 623.743 149.699 622.63 149.276C621.521 148.854 620.581 148.052 619.987 146.591C619.396 145.14 618.939 143.544 618.836 141.991C617.869 127.35 616.951 112.706 616.033 98.062C615.787 94.1346 615.54 90.2071 615.293 86.2797C615.287 86.1735 615.276 86.066 615.265 85.9609C615.26 85.9168 615.256 85.873 615.252 85.8299C615.238 85.6822 615.228 85.5387 615.233 85.3971C615.29 83.6453 615.346 81.8934 615.403 80.1416C615.576 74.7299 615.75 69.3185 615.956 63.9086L615.978 63.3448C616.159 58.5867 616.34 53.8281 616.667 49.0827C616.89 45.8372 617.176 42.6012 617.462 39.364C617.698 36.693 617.934 34.0212 618.135 31.3425C618.28 29.4044 618.38 27.4621 618.48 25.5213C618.493 25.2828 618.505 25.0442 618.517 24.8057C618.63 22.6263 618.75 20.4494 618.942 18.2799C619.106 16.4118 618.581 14.4196 617.651 12.8666C616.723 11.3165 615.378 10.1828 613.892 10.0729C612.093 9.93974 610.378 10.2839 609.054 11.3101C607.729 12.3376 606.812 14.0374 606.588 16.5842C606.211 20.8742 605.976 25.1796 605.742 29.4826C605.667 30.8594 605.592 32.2359 605.512 33.6116C605.289 37.4608 605.081 41.3111 604.873 45.1613C604.758 47.2849 604.643 49.4084 604.526 51.5316C604.377 54.2325 604.213 56.9333 604.049 59.6344C603.672 65.8421 603.295 72.0515 603.099 78.2675C602.9 84.5659 602.882 90.9108 603.346 97.1955C604.613 114.364 605.903 131.544 607.793 148.651C608.355 153.737 611.043 158.828 616.536 160.309C621.28 161.588 626.264 162.608 631.13 162.561C637.029 162.504 642.924 161.993 648.813 161.482C651.283 161.267 653.752 161.053 656.221 160.872C656.639 160.842 657.059 160.83 657.482 160.819C657.73 160.812 657.979 160.805 658.229 160.795C658.901 160.766 659.572 160.709 660.22 160.546C667.66 158.669 674.927 156.256 681.82 152.26Z" fill="white" stroke="white" stroke-width="0.2"/>
<path d="M1097.08 196.782L1097.15 196.827L1097.08 196.782C1095.93 198.563 1094.82 200.372 1093.7 202.18C1091 206.568 1088.31 210.951 1085.12 214.905C1083.17 217.318 1080.89 219.435 1078.57 221.522C1078.24 221.812 1077.92 222.1 1077.6 222.389C1075.59 224.183 1073.57 225.984 1071.74 227.956C1067.71 232.29 1064.01 237.001 1060.52 241.817C1059.58 243.106 1059.37 244.972 1059.65 246.738C1059.93 248.504 1060.7 250.198 1061.76 251.144C1063.2 252.422 1064.67 253.115 1066.16 253.122C1067.66 253.128 1069.16 252.448 1070.67 251.02C1074.65 247.264 1078.46 243.29 1082.1 239.178C1083.63 237.446 1085.05 235.58 1086.47 233.72C1086.96 233.072 1087.46 232.425 1087.95 231.784C1089.88 229.302 1091.87 226.917 1094.19 224.955C1100.64 219.497 1107.71 214.803 1114.76 210.124C1115.5 209.631 1116.25 209.138 1116.99 208.644C1118.29 207.775 1119.75 207.14 1121.25 206.58C1121.97 206.316 1122.69 206.069 1123.41 205.821L1123.54 205.777C1124.3 205.515 1125.06 205.252 1125.81 204.968L1125.78 204.874L1125.81 204.968C1125.88 204.941 1125.97 204.939 1126.08 204.963C1126.19 204.986 1126.31 205.033 1126.43 205.092C1126.53 205.135 1126.62 205.183 1126.72 205.233C1126.76 205.251 1126.79 205.269 1126.83 205.287C1126.93 205.337 1127.03 205.386 1127.13 205.427C1127.07 205.536 1127.03 205.647 1126.98 205.758C1126.94 205.842 1126.9 205.927 1126.87 206.008C1126.76 206.23 1126.66 206.44 1126.52 206.622L1126.6 206.682L1126.52 206.622C1126.24 206.997 1125.93 207.353 1125.62 207.711C1125.58 207.76 1125.54 207.808 1125.49 207.856C1125.14 208.263 1124.8 208.677 1124.49 209.123C1123.33 210.798 1122.17 212.471 1121.01 214.144C1116.89 220.106 1112.76 226.069 1108.73 232.107C1106.2 235.904 1103.81 239.835 1101.7 243.901C1100.07 247.045 1101.27 250.475 1104.14 252.595C1106.39 254.256 1109.9 253.84 1112.19 251.507C1115.11 248.529 1117.96 245.474 1120.8 242.409C1121.69 241.451 1122.55 240.467 1123.4 239.484C1124.81 237.864 1126.22 236.248 1127.75 234.76C1132.21 230.429 1136.76 226.193 1141.42 222.087C1145.21 218.741 1149.05 215.461 1152.93 212.148C1155.25 210.169 1157.58 208.179 1159.92 206.156C1161.27 205.035 1162.6 203.949 1163.92 202.874C1165.99 201.193 1168.01 199.541 1170 197.831C1171.85 196.227 1172.72 194.235 1172.61 192.281C1172.5 190.329 1171.42 188.43 1169.43 187.01C1167.33 185.514 1164.22 185.989 1161.59 188.267C1158.1 191.293 1154.62 194.326 1151.15 197.36C1147.56 200.489 1143.97 203.618 1140.37 206.74C1140.01 207.053 1139.48 207.225 1138.98 207.294C1138.97 207.28 1138.95 207.257 1138.93 207.222C1138.88 207.151 1138.82 207.05 1138.77 206.934C1138.72 206.818 1138.67 206.691 1138.64 206.572C1138.61 206.451 1138.59 206.345 1138.6 206.269C1138.84 204.016 1139.13 201.771 1139.43 199.525C1139.45 199.363 1139.47 199.2 1139.49 199.038C1140.08 194.582 1136.56 190.232 1132.32 190.505C1129.74 190.672 1127.03 190.85 1124.6 191.718C1121.3 192.899 1118.07 194.336 1114.85 195.77C1113.61 196.326 1112.36 196.882 1111.11 197.422C1110.73 197.584 1110.37 197.786 1110.02 197.984C1109.89 198.055 1109.77 198.125 1109.64 198.192C1109.59 197.998 1109.51 197.798 1109.44 197.603C1109.4 197.466 1109.35 197.332 1109.31 197.202C1109.19 196.836 1109.12 196.494 1109.17 196.184C1109.36 195.067 1109.61 193.961 1109.86 192.852C1109.91 192.656 1109.95 192.46 1110 192.264C1110.3 190.96 1110.58 189.649 1110.73 188.32C1110.96 186.372 1110.52 184.147 1109.55 182.403C1108.57 180.66 1107.05 179.381 1105.12 179.37C1102.4 179.356 1099.32 179.61 1096.99 180.911C1089.22 185.245 1081.65 189.985 1074.14 194.801C1072.13 196.094 1070.29 197.69 1068.45 199.28C1067.66 199.972 1066.86 200.664 1066.05 201.328C1063.23 203.642 1062.61 207.752 1064.62 210.709C1065.62 212.18 1066.92 213.027 1068.4 213.208C1069.87 213.389 1071.51 212.904 1073.19 211.746C1073.94 211.232 1074.66 210.674 1075.37 210.113C1075.45 210.047 1075.54 209.981 1075.62 209.915C1076.25 209.419 1076.87 208.924 1077.52 208.457C1077.9 208.179 1078.28 207.902 1078.67 207.624C1084.04 203.722 1089.42 199.821 1094.86 196.013C1095.08 195.857 1095.43 195.853 1095.84 195.914C1096.03 195.942 1096.23 195.982 1096.42 196.023L1096.47 196.032C1096.66 196.072 1096.86 196.111 1097.04 196.136C1097.05 196.146 1097.05 196.158 1097.06 196.172C1097.07 196.227 1097.09 196.304 1097.1 196.387C1097.11 196.471 1097.12 196.558 1097.11 196.632C1097.11 196.711 1097.09 196.76 1097.08 196.782Z" fill="white" stroke="white" stroke-width="0.2"/>
<path d="M934.23 109.364L934.296 109.354L934.23 109.364C935.646 118.211 940.212 124.78 948.225 128.74C955.665 132.417 963.537 132.339 971.348 132.261C971.651 132.258 971.953 132.255 972.256 132.252C978.454 132.195 984.695 131.786 990.82 130.861C996.079 130.066 1001.28 128.599 1006.35 126.928C1014.26 124.32 1021.21 119.673 1028.11 115.045C1039.13 107.658 1048.85 98.6416 1057.5 88.5095C1062.65 82.4821 1067.41 76.0963 1072.17 69.715C1073.91 67.3798 1075.65 65.0452 1077.41 62.729C1079.59 59.8613 1081.68 56.9115 1083.64 53.8811C1088.38 46.5695 1093.1 39.238 1097.67 31.8125C1099.95 28.1208 1102.07 24.2983 1103.92 20.3563C1104.55 18.9923 1104.49 17.368 1103.98 15.9161C1103.46 14.4646 1102.49 13.1712 1101.3 12.4704C1098.84 11.0249 1095.68 11.502 1093.9 14.2127C1091.59 17.7299 1089.36 21.3044 1087.14 24.8818C1086.99 25.13 1086.83 25.3782 1086.68 25.6264C1084.61 28.9559 1082.54 32.2846 1080.42 35.57C1076.06 42.3 1071.61 48.9774 1067 55.519C1063.36 60.6811 1059.55 65.7292 1055.55 70.5993C1054.53 71.8531 1053.51 73.1158 1052.48 74.379C1048.15 79.7403 1043.81 85.11 1038.91 89.8479C1030.37 98.116 1021.1 105.476 1010.49 110.957C1004.45 114.077 998.38 117.137 991.82 117.989C980.774 119.423 969.598 120.281 958.465 118.736C955.802 118.367 953.345 117.546 951.355 116.088C949.367 114.63 947.841 112.532 947.044 109.598C944.909 101.732 945.402 93.7086 945.893 85.6927C945.928 85.1266 945.963 84.5605 945.996 83.9945C946.254 79.6754 946.699 75.3689 947.191 70.8954C947.262 70.2607 947.335 69.6292 947.407 69.0005C947.834 65.2952 948.25 61.6863 948.34 58.0669C948.376 56.6512 947.726 55.3066 946.75 54.2823C945.774 53.2584 944.463 52.5457 943.161 52.4007C940.322 52.0847 937.339 54.0142 936.67 56.8333C936.248 58.6109 936.075 60.4622 935.905 62.285L935.897 62.3704C935.494 66.6769 935.118 70.9865 934.741 75.2956C934.594 76.9806 934.447 78.6655 934.299 80.3501C934.173 81.7776 934.017 83.2067 933.862 84.6371C933.508 87.8894 933.154 91.1478 933.144 94.4062C933.128 99.3922 933.442 104.443 934.23 109.364Z" fill="white" stroke="white" stroke-width="0.2"/>
<path d="M918.643 156.43L918.566 156.366L918.643 156.43C919.367 155.561 920.21 154.801 921.084 154.062C921.33 153.853 921.58 153.645 921.83 153.438C922.463 152.911 923.1 152.382 923.702 151.821C924.815 150.784 925.931 149.751 927.047 148.718C930.874 145.173 934.703 141.627 938.417 137.954C939.608 136.776 940.417 135.149 940.55 133.495C940.683 131.839 940.14 130.156 938.628 128.877C937.254 127.268 935.604 126.731 933.967 126.909C932.333 127.088 930.721 127.977 929.411 129.201C922.883 135.298 916.337 141.373 909.712 147.352C908.336 148.593 906.891 149.754 905.445 150.916C905.154 151.149 904.864 151.383 904.574 151.617C902.84 153.016 901.125 154.439 899.553 156.025C898.049 157.543 897.814 159.834 898.461 161.824C899.109 163.813 900.648 165.529 902.73 165.884C905.259 166.316 907.938 166.278 910.475 165.915C911.81 165.723 913.083 165.34 914.131 164.59C915.181 163.838 915.997 162.721 916.423 161.076C916.852 159.417 917.589 157.693 918.643 156.43Z" fill="white" stroke="white" stroke-width="0.2"/>
<path d="M563.036 169.15L563.129 169.186C562.954 169.633 562.743 170.102 562.528 170.579C561.807 172.183 561.044 173.879 561.436 175.147C562.381 178.21 564.762 180.931 568.217 180.896C570.831 180.87 572.745 178.917 574.042 176.414C574.911 174.737 575.874 172.973 577.206 171.721C584.581 164.788 592.04 157.949 599.563 151.191C602.294 148.738 603.141 145.227 601.242 142.631C599.109 139.714 594.975 139.068 592.098 141.3C582.373 148.845 573.044 156.853 565.085 166.748L565.008 166.684C565.008 166.684 565.007 166.684 565.007 166.684C564.764 166.978 564.513 167.242 564.269 167.498C564.136 167.638 564.005 167.776 563.878 167.914C563.525 168.303 563.215 168.695 563.036 169.15Z" fill="white" stroke="white" stroke-width="0.2"/>
<path d="M619.798 185.978L619.798 185.978L619.801 185.974C620.301 185.125 620.799 184.284 621.293 183.448C623.27 180.109 625.194 176.858 627.014 173.547C627.972 171.804 627.943 169.74 627.238 168.036C626.534 166.333 625.147 164.973 623.375 164.655C621.65 164.346 620.106 164.56 618.757 165.271C617.408 165.983 616.261 167.187 615.32 168.845C615.27 168.934 615.22 169.023 615.169 169.112C613.341 172.334 611.51 175.562 609.459 178.629C607.751 181.182 605.982 183.693 604.208 186.202C604.05 186.426 603.892 186.649 603.733 186.873C602.117 189.158 600.5 191.443 598.925 193.758C596.982 196.615 597.483 200.07 599.659 202.317C601.155 203.862 603.096 204.566 605.071 204.241C607.045 203.917 609.036 202.568 610.644 200.039C613.147 196.103 615.707 192.206 618.336 188.204C618.821 187.466 619.308 186.724 619.798 185.978Z" fill="white" stroke="white" stroke-width="0.2"/>
<path d="M997.745 158.825C997.763 159.056 997.876 159.274 998.001 159.506C998.011 159.524 998.021 159.543 998.031 159.561C998.152 159.783 998.286 160.03 998.392 160.341C998.52 160.816 998.636 161.28 998.749 161.732C999.08 163.064 999.387 164.295 999.921 165.398L1000.01 165.354L999.921 165.398C1000.82 167.266 1001.98 168.541 1003.28 169.178C1004.57 169.818 1006 169.811 1007.41 169.138C1008.79 168.481 1009.86 167.135 1010.48 165.548C1011.11 163.961 1011.3 162.123 1010.9 160.468C1010.18 157.431 1009.5 154.361 1009.13 151.267C1008.89 149.255 1008.76 147.229 1008.63 145.2C1008.63 145.112 1008.62 145.024 1008.62 144.936C1008.5 142.995 1008.38 141.051 1008.16 139.118C1007.95 137.144 1007.17 135.618 1006.04 134.602C1004.9 133.587 1003.39 133.088 1001.73 133.155C1000.33 133.212 998.943 134.117 997.929 135.381C996.913 136.646 996.259 138.288 996.354 139.843C996.718 145.779 997.185 151.71 997.651 157.639C997.683 158.034 997.714 158.429 997.745 158.825Z" fill="white" stroke="white" stroke-width="0.2"/>
<path d="M956.486 175.122L956.498 175.117L956.508 175.109C957.374 174.395 958.252 173.726 959.121 173.064C959.623 172.681 960.122 172.301 960.613 171.916C961.953 170.867 963.231 169.787 964.347 168.542C964.909 167.914 965.314 166.949 965.534 165.934C965.754 164.917 965.794 163.836 965.614 162.966C965.406 161.956 965.336 161.102 965.44 160.29C965.544 159.48 965.821 158.706 966.313 157.861C967.109 156.494 967.452 154.863 967.408 153.343C967.365 151.824 966.934 150.404 966.168 149.464C964.761 147.739 962.761 147.08 960.815 147.376C958.869 147.673 956.981 148.922 955.787 151.004C953.677 154.682 951.688 158.442 949.784 162.243C949.735 162.341 949.686 162.439 949.637 162.537C948.666 164.472 947.648 166.502 947.266 168.623C946.888 170.721 947.849 172.959 949.571 174.365C951.298 175.774 953.793 176.351 956.486 175.122Z" fill="white" stroke="white" stroke-width="0.2"/>
<path d="M657.448 176.58L657.436 176.565L657.421 176.556C655.671 175.52 653.64 175.44 651.994 176.22C650.346 177.001 649.093 178.641 648.893 181.026C648.758 182.645 648.664 184.27 648.57 185.893C648.521 186.733 648.473 187.573 648.418 188.412C648.329 189.783 648.221 191.156 648.113 192.529C647.871 195.602 647.628 198.679 647.601 201.757C647.581 204.05 648.562 205.704 649.916 206.775C651.267 207.844 652.988 208.332 654.455 208.306C658.073 208.239 660.372 204.78 660.279 200.732C660.25 199.468 660.369 198.201 660.498 196.927C660.505 196.854 660.512 196.78 660.52 196.707C660.641 195.508 660.763 194.302 660.767 193.096L660.767 193.045C660.778 188.863 660.79 184.649 660.337 180.497C660.261 179.798 659.799 179.155 659.237 178.526C659.02 178.284 658.786 178.041 658.549 177.795C658.477 177.72 658.405 177.646 658.334 177.571C658.025 177.248 657.72 176.92 657.448 176.58Z" fill="white" stroke="white" stroke-width="0.2"/>
<path d="M1654.35 760.776C1661.78 760.776 1668.6 759.487 1674.81 756.911C1681.18 754.183 1686.56 750.242 1690.95 745.09L1700.05 755.547C1694.74 761.912 1688.15 766.762 1680.27 770.096C1672.39 773.431 1663.67 775.098 1654.12 775.098C1641.85 775.098 1630.94 772.521 1621.39 767.368C1611.84 762.064 1604.41 754.789 1599.11 745.544C1593.8 736.299 1591.15 725.842 1591.15 714.172C1591.15 702.502 1593.65 692.045 1598.65 682.8C1603.81 673.555 1610.85 666.356 1619.8 661.203C1628.74 656.051 1638.89 653.474 1650.26 653.474C1660.87 653.474 1670.42 655.899 1678.9 660.749C1687.54 665.599 1694.36 672.343 1699.36 680.981C1704.52 689.62 1707.24 699.471 1707.55 710.535L1609.34 729.631C1612.37 739.33 1617.83 746.984 1625.71 752.592C1633.74 758.048 1643.29 760.776 1654.35 760.776ZM1650.26 667.341C1641.92 667.341 1634.42 669.312 1627.75 673.252C1621.24 677.041 1616.08 682.421 1612.29 689.393C1608.66 696.213 1606.84 704.094 1606.84 713.036C1606.84 715.309 1606.91 716.976 1607.07 718.037L1691.41 701.669C1689.59 691.666 1684.97 683.482 1677.54 677.117C1670.11 670.6 1661.02 667.341 1650.26 667.341Z" fill="white"/>
<path d="M1530.27 677.799C1534.06 669.766 1539.66 663.704 1547.09 659.612C1554.67 655.52 1563.99 653.474 1575.05 653.474V669.16L1571.19 668.933C1558.61 668.933 1548.76 672.797 1541.63 680.527C1534.51 688.256 1530.95 699.092 1530.95 713.036V773.961H1514.81V654.383H1530.27V677.799Z" fill="white"/>
<path d="M1421.18 775.098C1409.66 775.098 1399.28 772.521 1390.03 767.368C1380.79 762.064 1373.52 754.789 1368.21 745.544C1362.91 736.299 1360.25 725.842 1360.25 714.172C1360.25 702.502 1362.91 692.045 1368.21 682.8C1373.52 673.555 1380.79 666.356 1390.03 661.203C1399.28 656.051 1409.66 653.474 1421.18 653.474C1432.7 653.474 1443.08 656.051 1452.32 661.203C1461.57 666.356 1468.77 673.555 1473.92 682.8C1479.23 692.045 1481.88 702.502 1481.88 714.172C1481.88 725.842 1479.23 736.299 1473.92 745.544C1468.77 754.789 1461.57 762.064 1452.32 767.368C1443.08 772.521 1432.7 775.098 1421.18 775.098ZM1421.18 760.776C1429.67 760.776 1437.24 758.881 1443.91 755.092C1450.73 751.152 1456.04 745.62 1459.83 738.497C1463.61 731.374 1465.51 723.266 1465.51 714.172C1465.51 705.079 1463.61 696.971 1459.83 689.848C1456.04 682.724 1450.73 677.268 1443.91 673.479C1437.24 669.539 1429.67 667.569 1421.18 667.569C1412.69 667.569 1405.04 669.539 1398.22 673.479C1391.55 677.268 1386.25 682.724 1382.31 689.848C1378.52 696.971 1376.62 705.079 1376.62 714.172C1376.62 723.266 1378.52 731.374 1382.31 738.497C1386.25 745.62 1391.55 751.152 1398.22 755.092C1405.04 758.881 1412.69 760.776 1421.18 760.776Z" fill="white"/>
<path d="M1347.28 766.688C1344.24 769.416 1340.53 771.538 1336.14 773.053C1331.74 774.417 1327.12 775.099 1322.27 775.099C1311.05 775.099 1302.42 772.068 1296.35 766.006C1290.29 759.944 1287.26 751.381 1287.26 740.317V628.242H1303.4V654.385H1339.55V668.025H1303.4V739.408C1303.4 746.531 1305.14 751.987 1308.63 755.776C1312.11 759.413 1317.19 761.232 1323.86 761.232C1331.14 761.232 1337.05 759.186 1341.59 755.094L1347.28 766.688Z" fill="white"/>
<path d="M1209.21 775.098C1199.51 775.098 1190.19 773.734 1181.25 771.006C1172.46 768.126 1165.56 764.565 1160.56 760.321L1167.84 747.59C1172.84 751.531 1179.13 754.789 1186.71 757.366C1194.28 759.79 1202.16 761.003 1210.35 761.003C1221.26 761.003 1229.29 759.336 1234.45 756.002C1239.75 752.516 1242.4 747.666 1242.4 741.452C1242.4 737.057 1240.96 733.647 1238.08 731.222C1235.2 728.646 1231.57 726.751 1227.17 725.539C1222.78 724.175 1216.94 722.887 1209.67 721.674C1199.97 719.856 1192.16 718.037 1186.25 716.218C1180.34 714.248 1175.26 710.99 1171.02 706.443C1166.93 701.896 1164.88 695.607 1164.88 687.574C1164.88 677.571 1169.05 669.387 1177.39 663.022C1185.72 656.657 1197.31 653.474 1212.17 653.474C1219.9 653.474 1227.63 654.535 1235.36 656.657C1243.08 658.627 1249.45 661.279 1254.45 664.613L1247.4 677.571C1237.55 670.751 1225.81 667.341 1212.17 667.341C1201.86 667.341 1194.06 669.16 1188.75 672.797C1183.6 676.435 1181.02 681.209 1181.02 687.12C1181.02 691.666 1182.46 695.304 1185.34 698.032C1188.37 700.76 1192.09 702.806 1196.48 704.17C1200.88 705.382 1206.94 706.67 1214.67 708.034C1224.22 709.853 1231.87 711.672 1237.63 713.49C1243.39 715.309 1248.31 718.416 1252.41 722.811C1256.5 727.206 1258.54 733.268 1258.54 740.998C1258.54 751.455 1254.15 759.791 1245.36 766.004C1236.72 772.067 1224.67 775.098 1209.21 775.098Z" fill="white"/>
<path d="M1025.43 713.949L997.24 739.865V773.965H981.1V605.283H997.24V719.632L1068.62 654.387H1088.63L1037.48 703.264L1093.4 773.965H1073.62L1025.43 713.949Z" fill="white"/>
<path d="M887.47 775.098C875.952 775.098 865.57 772.521 856.326 767.368C847.081 762.064 839.806 754.789 834.502 745.544C829.197 736.299 826.545 725.842 826.545 714.172C826.545 702.502 829.197 692.045 834.502 682.8C839.806 673.555 847.081 666.356 856.326 661.203C865.57 656.051 875.952 653.474 887.47 653.474C898.989 653.474 909.37 656.051 918.615 661.203C927.86 666.356 935.059 673.555 940.212 682.8C945.516 692.045 948.168 702.502 948.168 714.172C948.168 725.842 945.516 736.299 940.212 745.544C935.059 754.789 927.86 762.064 918.615 767.368C909.37 772.521 898.989 775.098 887.47 775.098ZM887.47 760.776C895.957 760.776 903.535 758.881 910.204 755.092C917.024 751.152 922.328 745.62 926.117 738.497C929.906 731.374 931.8 723.266 931.8 714.172C931.8 705.079 929.906 696.971 926.117 689.848C922.328 682.724 917.024 677.268 910.204 673.479C903.535 669.539 895.957 667.569 887.47 667.569C878.983 667.569 871.33 669.539 864.51 673.479C857.841 677.268 852.537 682.724 848.596 689.848C844.807 696.971 842.913 705.079 842.913 714.172C842.913 723.266 844.807 731.374 848.596 738.497C852.537 745.62 857.841 751.152 864.51 755.092C871.33 758.881 878.983 760.776 887.47 760.776Z" fill="white"/>
<path d="M744.957 775.098C733.438 775.098 723.057 772.521 713.812 767.368C704.567 762.064 697.292 754.789 691.988 745.544C686.683 736.299 684.031 725.842 684.031 714.172C684.031 702.502 686.683 692.045 691.988 682.8C697.292 673.555 704.567 666.356 713.812 661.203C723.057 656.051 733.438 653.474 744.957 653.474C756.475 653.474 766.856 656.051 776.101 661.203C785.346 666.356 792.545 673.555 797.698 682.8C803.003 692.045 805.655 702.502 805.655 714.172C805.655 725.842 803.003 736.299 797.698 745.544C792.545 754.789 785.346 762.064 776.101 767.368C766.856 772.521 756.475 775.098 744.957 775.098ZM744.957 760.776C753.444 760.776 761.022 758.881 767.69 755.092C774.51 751.152 779.815 745.62 783.603 738.497C787.392 731.374 789.287 723.266 789.287 714.172C789.287 705.079 787.392 696.971 783.603 689.848C779.815 682.724 774.51 677.268 767.69 673.479C761.022 669.539 753.444 667.569 744.957 667.569C736.47 667.569 728.816 669.539 721.996 673.479C715.328 677.268 710.023 682.724 706.083 689.848C702.294 696.971 700.399 705.079 700.399 714.172C700.399 723.266 702.294 731.374 706.083 738.497C710.023 745.62 715.328 751.152 721.996 755.092C728.816 758.881 736.47 760.776 744.957 760.776Z" fill="white"/>
<path d="M603.578 653.478C614.793 653.478 624.947 656.054 634.041 661.207C643.134 666.209 650.257 673.332 655.41 682.577C660.563 691.822 663.14 702.355 663.14 714.176C663.14 725.997 660.563 736.531 655.41 745.775C650.257 755.02 643.134 762.219 634.041 767.372C624.947 772.525 614.793 775.101 603.578 775.101C593.575 775.101 584.558 772.98 576.525 768.736C568.645 764.493 562.279 758.355 557.429 750.322V773.965H541.971V605.283H558.111V677.121C563.113 669.391 569.478 663.556 577.207 659.616C585.088 655.524 593.879 653.478 603.578 653.478ZM602.441 760.779C610.777 760.779 618.355 758.885 625.175 755.096C631.995 751.156 637.299 745.624 641.088 738.501C645.029 731.378 646.999 723.269 646.999 714.176C646.999 705.083 645.029 696.974 641.088 689.851C637.299 682.728 631.995 677.272 625.175 673.483C618.355 669.543 610.777 667.573 602.441 667.573C593.954 667.573 586.301 669.543 579.481 673.483C572.812 677.272 567.508 682.728 563.567 689.851C559.778 696.974 557.884 705.083 557.884 714.176C557.884 723.269 559.778 731.378 563.567 738.501C567.508 745.624 572.812 751.156 579.481 755.096C586.301 758.885 593.954 760.779 602.441 760.779Z" fill="white"/>
<path d="M437.295 654.387V773.965H421.836V752.141C417.593 759.415 411.758 765.099 404.332 769.191C396.906 773.131 388.418 775.101 378.87 775.101C363.26 775.101 350.908 770.782 341.815 762.143C332.873 753.353 328.402 740.547 328.402 723.724V654.387H344.543V722.133C344.543 734.712 347.65 744.26 353.864 750.777C360.078 757.294 368.944 760.552 380.462 760.552C393.041 760.552 402.968 756.763 410.242 749.185C417.517 741.456 421.154 730.771 421.154 717.131V654.387H437.295Z" fill="white"/>
<path d="M237.066 653.478C248.282 653.478 258.436 656.054 267.529 661.207C276.622 666.209 283.746 673.332 288.898 682.577C294.051 691.822 296.628 702.355 296.628 714.176C296.628 725.997 294.051 736.531 288.898 745.775C283.746 755.02 276.622 762.219 267.529 767.372C258.436 772.525 248.282 775.101 237.066 775.101C227.064 775.101 218.046 772.98 210.014 768.736C202.133 764.493 195.767 758.355 190.918 750.322V773.965H175.459V605.283H191.6V677.121C196.601 669.391 202.966 663.556 210.696 659.616C218.577 655.524 227.367 653.478 237.066 653.478ZM235.93 760.779C244.265 760.779 251.843 758.885 258.663 755.096C265.483 751.156 270.788 745.624 274.576 738.501C278.517 731.378 280.487 723.269 280.487 714.176C280.487 705.083 278.517 696.974 274.576 689.851C270.788 682.728 265.483 677.272 258.663 673.483C251.843 669.543 244.265 667.573 235.93 667.573C227.443 667.573 219.789 669.543 212.969 673.483C206.301 677.272 200.996 682.728 197.056 689.851C193.267 696.974 191.372 705.083 191.372 714.176C191.372 723.269 193.267 731.378 197.056 738.501C200.996 745.624 206.301 751.156 212.969 755.096C219.789 758.885 227.443 760.779 235.93 760.779Z" fill="white"/>
<path d="M130.252 654.387V773.965H114.794V752.141C110.55 759.415 104.715 765.099 97.2888 769.191C89.8626 773.131 81.3755 775.101 71.8275 775.101C56.2172 775.101 43.8654 770.782 34.7721 762.143C25.8303 753.353 21.3594 740.547 21.3594 723.724V654.387H37.5001V722.133C37.5001 734.712 40.607 744.26 46.8207 750.777C53.0345 757.294 61.9005 760.552 73.4188 760.552C85.9979 760.552 95.9248 756.763 103.2 749.185C110.474 741.456 114.112 730.771 114.112 717.131V654.387H130.252Z" fill="white"/>
<path fill-rule="evenodd" clip-rule="evenodd" d="M25.2593 729.761L1.10412e-06 729.761L0 717.131L25.2593 717.131L25.2593 729.761Z" fill="white"/>
<path fill-rule="evenodd" clip-rule="evenodd" d="M39.2411 753.549L16.6483 772.494L8.53333 762.816L31.1262 743.871L39.2411 753.549Z" fill="white"/>
</svg>
